<?xml version="1.0" encoding="UTF-8"?>
<!DOCTYPE svg PUBLIC "-//W3C//DTD SVG 1.1//EN" "http://www.w3.org/Graphics/SVG/1.1/DTD/svg11.dtd">
<!-- Creator: CorelDRAW -->
<svg xmlns="http://www.w3.org/2000/svg" xml:space="preserve" width="73.2894mm" height="6.879mm" version="1.1" style="shape-rendering:geometricPrecision; text-rendering:geometricPrecision; image-rendering:optimizeQuality; fill-rule:evenodd; clip-rule:evenodd"
viewBox="0 0 7328.94 687.9"
 xmlns:xlink="http://www.w3.org/1999/xlink"
 xmlns:xodm="http://www.corel.com/coreldraw/odm/2003">
 <defs>
  <style type="text/css">
   <![CDATA[
    .fil0 {fill:white;fill-rule:nonzero}
   ]]>
  </style>
 </defs>
 <g id="Слой_x0020_1">
  <metadata id="CorelCorpID_0Corel-Layer"/>
  <path class="fil0" d="M500.35 38.38c-2.4,4.66 -4.09,7.9 -4.94,9.6l-28.08 49.67c-9.59,17.78 -18.62,39.93 -26.81,66.46l-0.85 2.12 -4.23 -2.97 -1.13 -5.36c-8.04,-31.61 -19.47,-53.48 -34.15,-65.61 -14.81,-12.28 -37.25,-18.35 -67.59,-18.35 -12.42,0 -24.84,0.57 -37.25,1.69l-4.94 0 0 448.6 48.82 45.01 -188.81 0 57.86 -48.4 0 -411.62 -29.35 -1.41c-28.36,0 -48.54,5.64 -60.54,17.07 -11.99,11.29 -19.05,31.33 -21.31,59.98l-10.72 0c2.96,-32.6 11.29,-55.18 24.98,-68.02 13.68,-12.84 36.12,-19.19 67.59,-19.19l24.84 0.84 4.51 0 0 -20.32c-14.11,-1.69 -27.37,-2.54 -40.07,-2.54 -35.57,0 -61.25,7.2 -76.91,21.74 -15.66,14.53 -24.41,39.22 -26.11,73.8l-4.94 0c-11.85,-38.53 -30.19,-81.28 -54.89,-128.7l-2.54 -4.09 497.56 0zm26.39 26.81c-18.91,24.27 -38.95,64.49 -59.83,120.65l-1.69 4.1 -9.18 -7.91 1.27 -3.67c20.46,-57.01 40.08,-96.52 59.13,-118.81l2.12 -2.54 8.18 8.18zm-110.21 63.93c-21.17,-14.26 -46,-21.31 -74.36,-21.31 -6.35,0 -12.99,0.56 -19.9,1.83l1.69 415.86 65.76 77.61 -211.24 0 -9.6 -11.01 198.12 0 -55.46 -63.36 0 -431.09 22.3 -0.85c26.81,0 45.72,2.12 56.87,6.49 11.15,4.38 19.75,12.98 25.82,25.83z"/>
  <path id="_1" class="fil0" d="M539.44 38.38l194.59 0 -56.16 55.03 0 178.93c6.21,1.13 13.55,1.98 22.01,2.4l0 -177.09 45.3 -44.73 8.19 7.47 -42.48 42.2 0 172.58 13.69 1.41c21.17,2.11 41.63,3.1 61.38,3.1 28.65,0 53.34,-1.55 73.94,-4.51l0 -190.36 -50.37 -46.43 191.2 0 -57 55.03 0 431.1 49.95 44.73 -190.36 0 56.58 -48.4 0 -175.26c-23.14,5.79 -46.84,8.61 -71.4,8.61 -23.14,0 -47.13,-1.41 -71.82,-4.09l-5.79 -0.43 0 174.84 68.16 78.6 -213.93 0 -10.72 -11.01 201.93 0 -56.45 -61.66 0 -190.22 12 0.85c36.41,3.1 62.65,4.65 79.02,4.65 26.39,0 49.39,-3.81 69,-11.43l0 -14.81c-25.82,3.95 -56.02,5.92 -90.45,5.92 -18.34,0 -31.89,-0.42 -40.36,-1.27l-41.76 -3.81c-1.56,-0.28 -4.8,-0.56 -9.46,-0.84l0 205.03 52.78 44.73 -191.21 0 55.46 -48.4 0 -180.62c-23.15,0 -41.63,9.03 -55.46,27.23l-8.61 -4.09c15.95,-20.18 37.4,-31.33 64.07,-33.58l0 -15.24c-30.91,0 -55.32,11.71 -73.24,35.13l-6.07 -4.09c16.23,-39.79 42.62,-63.22 79.31,-70.41l0 -186.27 -55.46 -50.52zm478.65 23.14l-42.19 41.07 0 422.06 68.58 78.46 -214.35 0 -10.3 -11.01 201.08 0 -55.17 -62.51 0 -431.1 45.72 -45.57 6.63 8.6z"/>
  <path id="_2" class="fil0" d="M1510.01 38.38l-6.63 7.9c-28.09,34.43 -50.38,74.09 -67.03,118.82 -2.68,-6.35 -4.8,-11.01 -6.21,-14.11 -15.1,-33.16 -31.33,-54.61 -48.69,-64.21 -17.35,-9.73 -48.4,-14.53 -93.27,-14.53 -20.74,0 -45.44,0.7 -74.37,2.11l0 190.93 25.4 0 0 -169.05c21.03,-1.84 41.07,-2.83 60.26,-2.83 35.14,0 60.96,3.67 77.61,11.15 16.65,7.48 31.47,22.02 44.45,43.46 -3.95,-2.68 -6.63,-4.79 -8.33,-6.2 -22.43,-17.64 -38.66,-28.23 -48.68,-31.61 -9.88,-3.25 -29.63,-4.94 -58.98,-4.94 -8.89,0 -24.7,0.56 -47.42,1.83l-8.75 0.43 0 157.76 76.63 0 53.76 -73.66 0 177.8 -53.76 -68.58 -112.19 0 0 231.99 25.4 0 0 -212.52 90.17 0 10.87 10.16 -90.88 0 0 202.36c56.45,0 96.67,-3.95 120.51,-12 23.85,-8.04 42.48,-23.85 56.02,-47.27l22.02 -37.82c0.84,-1.55 2.54,-4.66 5.08,-9.03 7.05,30.34 15.94,54.61 26.67,72.81 10.58,18.21 28.08,39.52 52.63,63.79l-463.41 0 62.8 -47.84 0 -185c-23.15,2.82 -44.03,9.88 -62.8,21.59l-5.78 -8.75c16.79,-11.85 39.65,-19.47 68.58,-23l0 -19.47c-4.66,-0.57 -8.05,-0.85 -9.88,-0.85 -28.08,0 -53.76,10.16 -76.91,30.48 12.7,-43.46 41.63,-65.19 86.79,-65.19l0 -177.24 -62.8 -49.67 441.12 0zm19.47 29.07l-2.96 3.67c-33.59,45.15 -56.02,83.11 -67.31,113.74l-7.06 -8.75c18.49,-42.62 42.34,-81.85 71.55,-117.41l5.78 8.75zm-121.78 137.87l0 182.74 -10.16 -5.37 0 -182.74 10.16 5.37zm171.31 360.68l-21.45 37.11 -451.41 0 -6.64 -11.01 452.69 0 13.97 -26.1c-39.65,-36.69 -67.59,-75.78 -83.82,-117.41l13.12 4.94c15.24,35.28 40.78,70.56 76.91,105.84l6.63 6.63z"/>
  <path id="_3" class="fil0" d="M1818.48 88.05c65.48,-37.67 135.75,-56.44 211.11,-56.44 58.42,0 106.68,12.7 144.64,38.1 37.96,25.26 56.87,57.57 56.87,96.8 0,31.89 -12.42,60.26 -37.26,84.95 -24.83,24.69 -58.7,42.47 -101.74,53.62 18.91,52.35 44.73,103.3 77.47,152.97 32.6,49.53 65.34,87.63 98.21,114.16l-6.2 1.97c-41.07,14.11 -81.43,33.87 -120.8,59.55l-6.21 4.09 -1.97 -13.26c-17.64,-106.68 -42.33,-196.99 -74.08,-271.22l-1.7 -4.09c-18.91,8.75 -44.45,15.8 -76.48,21.03l-3.25 0.42 0 154.66 72.82 77.75 -214.07 0 -6.63 -11.01 197.13 0 -60.25 -63.78 0 -166.65 8.75 -1.27c31.46,-3.25 57.85,-9.46 79.16,-18.63 -1.69,-3.24 -2.68,-5.36 -2.96,-6.21l-4.1 -11.99c-0.28,-0.85 -0.98,-2.4 -2.11,-4.94 -17.08,4.94 -49.39,10.3 -97.09,16.09l-4.51 0.84 0 184.44 47.55 49.24 -183.02 0 54.19 -49.24 0 -138.86 -3.39 0.42c-16.09,3.53 -30.62,7.48 -43.74,12l-3.39 1.13 -3.67 -8.19c12.28,-4.65 21.87,-7.9 28.79,-9.59l22.01 -5.36 3.39 -0.85 0 -21.45c-16.37,0 -36.69,3.53 -61.1,10.72l-4.66 1.7c0.56,-3.81 3.24,-12.84 8.32,-26.95 0.57,-0.99 2.4,-7.2 5.79,-18.49 0.28,-0.85 0.71,-2.12 1.13,-3.81 12.42,0.71 22.15,1.13 29.07,1.13 7.34,0 14.25,-0.42 20.6,-1.13l0 -203.62c-12.7,-7.77 -25.82,-14.26 -39.23,-19.48l-3.39 -1.27zm124.75 -10.72l0 223.1c8.04,0 15.66,-0.71 22.86,-1.98l0 -203.77c15.24,-4.23 33.44,-6.35 54.61,-6.35 53.9,0 90.45,17.78 109.78,53.2 -20.46,-16.79 -38.38,-28.22 -53.76,-34.43 -15.38,-6.35 -33.87,-9.45 -55.32,-9.45 -16.93,0 -31.61,1.83 -44.31,5.36l0 195.44 4.52 -0.85c54.33,-9.87 94.69,-25.54 121.07,-46.85 26.39,-21.3 39.51,-48.96 39.51,-83.11 0,-30.48 -11.85,-55.74 -35.7,-75.64 -23.7,-19.89 -53.62,-29.91 -89.88,-29.91 -29.07,0 -53.49,5.08 -73.38,15.24zm200.09 248.35c17.36,56.73 47.98,112.33 92.15,166.66 27.52,33.86 62.37,64.34 104.56,91.3 -63.07,16.79 -122.34,42.47 -177.8,76.9l-3.67 2.54 -8.32 -6.63c52.63,-34.43 108.8,-59.83 168.34,-76.06 -79.44,-52.92 -141.81,-137.58 -187.25,-253.86l-2.54 -7.05c83.96,-32.04 126.01,-80.86 126.01,-146.48 0,-27.09 -10.72,-56.58 -32.17,-88.62 27.66,25.4 41.49,57.58 41.49,96.81 0,63.5 -40.22,111.62 -120.8,144.49z"/>
  <path id="_4" class="fil0" d="M2657.68 130.67l-7.06 -4.09c-26.39,-14.82 -50.66,-22.16 -72.67,-22.16 -72.39,0 -108.66,71.26 -108.66,213.93 0,104.42 22.44,173.56 67.17,207.43l-3.67 4.09c-27.51,-19.47 -46.99,-45.15 -58.7,-77.04 -11.71,-31.75 -17.5,-74.93 -17.5,-129.12 0,-152.97 40.22,-229.45 120.51,-229.45 36.69,0 63.5,12.14 80.58,36.41zm-88.62 -97.37c67.17,0 120.79,25.4 160.87,76.06 40.21,50.66 60.25,118.53 60.25,203.34 0,80.15 -19.75,144.08 -59.41,191.77 -39.65,47.7 -92.85,71.55 -159.59,71.55 -52.78,0 -99.63,-16.8 -140.83,-50.38 -60.4,-49.67 -90.6,-123.05 -90.6,-220.42 0,-83.11 20.75,-149.29 62.09,-198.4 41.35,-48.97 97.23,-73.52 167.22,-73.52zm0 35.56c-93.56,0 -140.41,81.7 -140.41,245.11 0,150.99 46.15,226.49 138.43,226.49 42.9,0 75.64,-20.04 98.08,-59.98 22.43,-40.07 33.58,-98.63 33.58,-175.68 0,-87.07 -10.86,-147.89 -32.45,-182.32 -22.72,-35.7 -55.04,-53.62 -97.23,-53.62zm131.94 -14.82c39.51,19.05 70.84,51.65 93.7,97.65 23,46.01 34.43,99.21 34.43,159.6 0,88.76 -22.58,160.45 -67.59,215.06 -45.16,54.61 -104.43,81.84 -177.8,81.84 -46.85,0 -90.74,-15.8 -131.52,-47.27l0 -2.12c34.15,24.98 77.05,37.54 128.69,37.54 69.29,0 126.16,-26.11 170.61,-78.18 44.45,-52.07 66.6,-118.67 66.6,-199.81 0,-60.26 -10.16,-113.17 -30.48,-158.33 -20.32,-45.3 -49.25,-79.02 -86.64,-101.32l0 -4.66z"/>
  <path id="_5" class="fil0" d="M3300.02 51.22l-4.52 7.9c-24.84,43.33 -46.28,86.65 -64.49,129.97l-3.67 9.59 -5.36 -2.96c-6.49,-41.77 -21.17,-74.93 -44.45,-99.48 -23.14,-24.42 -51.22,-36.69 -84.1,-36.69 -35.14,0 -64.35,15.24 -87.91,45.86 -29.5,37.96 -44.31,102.45 -44.31,193.32 0,78.18 13.54,139.42 40.78,183.73 27.23,44.31 65.05,66.46 113.45,66.46 38.67,0 69.57,-12.84 92.57,-38.52 23.14,-25.68 36.83,-62.37 41.35,-110.07 0.98,-11.57 5.78,-17.35 13.97,-17.35 10.86,0 16.23,8.89 16.23,26.81 0,26.67 -6.07,54.33 -18.21,82.97 -25.68,60.54 -78.6,90.88 -159.03,90.88 -71.69,0 -128.7,-25.12 -170.89,-75.5 -42.19,-50.38 -63.36,-118.39 -63.36,-204.19 0,-79.02 21.88,-145.34 65.76,-198.82 43.89,-53.48 98.36,-80.3 163.55,-80.3 30.76,0 66.04,7.62 105.41,22.72 20.74,8.05 37.82,12 51.36,12 14.54,0 27.66,-4.09 39.23,-12.14l6.64 3.81zm-119.81 71.69c-24.97,-20.18 -48.68,-30.34 -70.84,-30.34 -71.12,0 -106.68,68.15 -106.68,204.47 0,61.95 8.19,113.59 24.56,154.94 16.51,41.2 39.65,67.87 69.42,80.01l0 4.09c-32.45,-6.63 -58.27,-31.61 -77.61,-75.07 -19.33,-43.32 -29.07,-98.35 -29.07,-164.82 0,-142.52 39.09,-213.78 117.13,-213.78 26.38,0 50.8,11.71 73.09,35.13l0 5.37zm134.76 284.2c-4.51,68.29 -23.56,120.36 -57.29,156.07 -33.72,35.7 -81,53.48 -141.53,53.48 -46.15,0 -88.9,-14.11 -128.7,-42.48l0 -3.38c35.28,23.28 77.9,34.85 127.85,34.85 54.47,0 99.06,-17.5 133.49,-52.49 16.79,-17.08 29.21,-36.27 37.26,-57.58 7.9,-21.16 13.26,-49.25 16.08,-84.38l0.85 -9.46 11.99 5.37zm15.24 -335.71l-4.51 7.9c-30.06,51.37 -54.05,98.08 -71.97,140.27l-11.15 -5.36 4.52 -10.3c13.83,-29.07 25.96,-53.06 36.41,-72.11l33.02 -58.71 4.23 -7.47 9.45 5.78z"/>
  <path id="_6" class="fil0" d="M3361.68 38.38l193.32 0 -57.01 54.61 0 250.05 22.02 -26.1 0 -220.56 46.56 -45.16 6.21 9.17 -42.61 41.35 0 202.5 128.13 -153.25c18.48,-22.02 27.65,-41.91 27.65,-59.55 0,-10.58 -5.22,-20.6 -15.66,-30.06 -10.44,-9.59 -23.14,-15.8 -37.96,-18.91l0 -4.09 217.88 0 0 4.09c-47.7,11.72 -99.06,50.52 -154.24,116.84l-57.43 68.3 152.54 296.62 69.43 45.01 -214.63 0 54.19 -40.5 -102.45 -205.17 -67.45 82.41 0 118.25 67.45 78.88 -211.95 0 -11.15 -11.01 198.26 0 -52.77 -63.36 0 -128.27 72.25 -88.47 -9.18 -18.21 -85.09 101.74 0 128.7 49.53 45.01 -189.09 0 56.59 -48.4 0 -433.21 -53.34 -49.25zm509.27 37.68c-40.78,2.82 -81.42,26.67 -121.92,71.68l-72.39 80.3 145.91 296.19 116.98 78.88 -262.89 0 -11.57 -11.01 239.33 0 -88.06 -59.97 -151.27 -304.09 76.91 -86.93c40.21,-45.01 81.7,-69.57 124.46,-73.8l4.51 8.75z"/>
  <path id="_7" class="fil0" d="M4379.94 38.38l-6.63 7.9c-28.09,34.43 -50.38,74.09 -67.03,118.82 -2.68,-6.35 -4.8,-11.01 -6.21,-14.11 -15.1,-33.16 -31.33,-54.61 -48.69,-64.21 -17.35,-9.73 -48.4,-14.53 -93.27,-14.53 -20.74,0 -45.44,0.7 -74.37,2.11l0 190.93 25.4 0 0 -169.05c21.03,-1.84 41.07,-2.83 60.26,-2.83 35.14,0 60.96,3.67 77.61,11.15 16.65,7.48 31.47,22.02 44.45,43.46 -3.95,-2.68 -6.63,-4.79 -8.33,-6.2 -22.43,-17.64 -38.66,-28.23 -48.68,-31.61 -9.88,-3.25 -29.63,-4.94 -58.98,-4.94 -8.89,0 -24.7,0.56 -47.42,1.83l-8.75 0.43 0 157.76 76.63 0 53.76 -73.66 0 177.8 -53.76 -68.58 -112.19 0 0 231.99 25.4 0 0 -212.52 90.17 0 10.87 10.16 -90.88 0 0 202.36c56.45,0 96.67,-3.95 120.51,-12 23.85,-8.04 42.48,-23.85 56.02,-47.27l22.02 -37.82c0.84,-1.55 2.54,-4.66 5.08,-9.03 7.05,30.34 15.94,54.61 26.67,72.81 10.58,18.21 28.08,39.52 52.63,63.79l-463.41 0 62.8 -47.84 0 -185c-23.15,2.82 -44.03,9.88 -62.8,21.59l-5.78 -8.75c16.79,-11.85 39.65,-19.47 68.58,-23l0 -19.47c-4.66,-0.57 -8.05,-0.85 -9.88,-0.85 -28.08,0 -53.76,10.16 -76.91,30.48 12.7,-43.46 41.63,-65.19 86.79,-65.19l0 -177.24 -62.8 -49.67 441.12 0zm19.47 29.07l-2.96 3.67c-33.59,45.15 -56.02,83.11 -67.31,113.74l-7.06 -8.75c18.49,-42.62 42.34,-81.85 71.55,-117.41l5.78 8.75zm-121.78 137.87l0 182.74 -10.16 -5.37 0 -182.74 10.16 5.37zm171.31 360.68l-21.45 37.11 -451.41 0 -6.64 -11.01 452.69 0 13.97 -26.1c-39.65,-36.69 -67.59,-75.78 -83.82,-117.41l13.12 4.94c15.24,35.28 40.78,70.56 76.91,105.84l6.63 6.63z"/>
  <path id="_8" class="fil0" d="M4918.14 38.38c-2.4,4.66 -4.09,7.9 -4.94,9.6l-28.08 49.67c-9.59,17.78 -18.62,39.93 -26.81,66.46l-0.85 2.12 -4.23 -2.97 -1.13 -5.36c-8.04,-31.61 -19.47,-53.48 -34.15,-65.61 -14.81,-12.28 -37.25,-18.35 -67.59,-18.35 -12.42,0 -24.84,0.57 -37.25,1.69l-4.94 0 0 448.6 48.82 45.01 -188.81 0 57.86 -48.4 0 -411.62 -29.35 -1.41c-28.36,0 -48.54,5.64 -60.54,17.07 -11.99,11.29 -19.05,31.33 -21.31,59.98l-10.72 0c2.96,-32.6 11.29,-55.18 24.98,-68.02 13.68,-12.84 36.12,-19.19 67.59,-19.19l24.84 0.84 4.51 0 0 -20.32c-14.11,-1.69 -27.37,-2.54 -40.07,-2.54 -35.57,0 -61.25,7.2 -76.91,21.74 -15.66,14.53 -24.41,39.22 -26.11,73.8l-4.94 0c-11.85,-38.53 -30.19,-81.28 -54.89,-128.7l-2.54 -4.09 497.56 0zm26.39 26.81c-18.91,24.27 -38.95,64.49 -59.83,120.65l-1.69 4.1 -9.18 -7.91 1.27 -3.67c20.46,-57.01 40.08,-96.52 59.13,-118.81l2.12 -2.54 8.18 8.18zm-110.21 63.93c-21.17,-14.26 -46,-21.31 -74.36,-21.31 -6.35,0 -12.99,0.56 -19.9,1.83l1.69 415.86 65.76 77.61 -211.24 0 -9.6 -11.01 198.12 0 -55.46 -63.36 0 -431.09 22.3 -0.85c26.81,0 45.72,2.12 56.87,6.49 11.15,4.38 19.75,12.98 25.82,25.83z"/>
  <path id="_9" class="fil0" d="M5170.03 94.68c65.47,-43.18 139.14,-64.77 220.56,-64.77 59.26,0 107.52,13.27 145.06,39.94 37.39,26.53 56.16,60.96 56.16,103.15 0,56.31 -32.45,93.98 -97.51,113.03l0 4.52c6.64,1.69 14.68,3.81 23.99,6.63 30.76,-7.2 54.9,-21.87 72.53,-43.89 17.64,-22.15 26.39,-48.68 26.39,-79.87 0,-39.22 -16.23,-74.08 -48.82,-104.42l0 -2.4 4.51 3.67c36.27,27.94 54.47,63.64 54.47,107.25 0,60.11 -31.18,102.16 -93.7,125.87 26.81,12.42 47.84,30.06 62.8,52.92 14.96,22.86 22.44,48.68 22.44,77.32 0,41.07 -14.82,73.95 -44.6,98.64 -29.63,24.7 -69.28,36.97 -118.81,36.97l-295.77 0 57.01 -48.68 0 -179.07c-16.23,0 -35.28,1.55 -57.01,4.94l-3.39 -12c24.55,-2.54 44.73,-3.81 60.4,-3.81l0 -21.87 -10.3 0c-15.53,0 -34.86,1.13 -58.28,3.25l18.2 -39.66 6.63 0.43c10.73,0.84 18.77,1.27 24.27,1.27 8.33,0 14.82,0.42 19.48,1.27l0 -155.79 -46.71 -24.84zm129.68 -6.2l0 186.83c2.96,-0.43 5.08,-0.71 6.07,-0.71l7.34 0.85c1.13,-0.14 3.38,-0.14 6.91,-0.14l0 -169.48c23.71,-11.15 46.85,-16.65 69.43,-16.65 25.82,0 46.28,4.66 61.24,14.11 15.1,9.46 27.8,25.4 38.24,48.12l-11.57 -6.63c-20.6,-31.47 -50.09,-47.13 -88.48,-47.13 -21.45,0 -40.78,6.21 -57.85,18.62l0 159.04 17.35 0.14c52.64,0 91.87,-8.75 117.55,-26.25 25.82,-17.5 38.66,-44.31 38.66,-80.43 0,-31.75 -10.58,-57.29 -31.89,-76.63 -21.3,-19.47 -49.39,-29.21 -83.96,-29.21 -30.48,0 -60.11,8.47 -89.04,25.55zm0 220.69l0 227.9 20.32 0 0 -203.06c19.62,-1.27 33.59,-1.83 42.19,-1.83 45.72,0 78.74,4.23 99.35,12.7 20.46,8.6 36.83,24.83 48.96,48.68l-5.08 0c-13.4,-19.05 -30.34,-32.17 -50.8,-39.51 -20.32,-7.2 -50.23,-10.87 -89.75,-10.87l-33.86 0.71 0 193.18 13.26 0 59.97 -2.12c77.62,-5.5 116.42,-43.18 116.42,-113.17 0,-43.88 -12.84,-73.8 -38.38,-90.03 -25.54,-16.08 -73.38,-24.13 -143.37,-24.13 -6.91,0 -20.04,0.57 -39.23,1.55zm309.32 28.93c29.77,22.86 44.59,57.58 44.59,104.14 0,46.85 -16.37,85.66 -49.25,116.28 -32.03,29.77 -79.16,44.59 -141.39,44.59l-281.1 0 -7.05 -11.01 260.91 0c57.01,0 97.93,-5.78 123.19,-17.35 55.74,-25.97 83.68,-70.98 83.68,-135.33 0,-35.84 -12.84,-68.3 -38.66,-97.51l5.08 -3.81z"/>
  <path id="_10" class="fil0" d="M6155.13 38.38l-6.63 7.9c-28.09,34.43 -50.38,74.09 -67.03,118.82 -2.68,-6.35 -4.8,-11.01 -6.21,-14.11 -15.1,-33.16 -31.33,-54.61 -48.69,-64.21 -17.35,-9.73 -48.4,-14.53 -93.27,-14.53 -20.74,0 -45.44,0.7 -74.37,2.11l0 190.93 25.4 0 0 -169.05c21.03,-1.84 41.07,-2.83 60.26,-2.83 35.14,0 60.96,3.67 77.61,11.15 16.65,7.48 31.47,22.02 44.45,43.46 -3.95,-2.68 -6.63,-4.79 -8.33,-6.2 -22.43,-17.64 -38.66,-28.23 -48.68,-31.61 -9.88,-3.25 -29.63,-4.94 -58.98,-4.94 -8.89,0 -24.7,0.56 -47.42,1.83l-8.75 0.43 0 157.76 76.63 0 53.76 -73.66 0 177.8 -53.76 -68.58 -112.19 0 0 231.99 25.4 0 0 -212.52 90.17 0 10.87 10.16 -90.88 0 0 202.36c56.45,0 96.67,-3.95 120.51,-12 23.85,-8.04 42.48,-23.85 56.02,-47.27l22.02 -37.82c0.84,-1.55 2.54,-4.66 5.08,-9.03 7.05,30.34 15.94,54.61 26.67,72.81 10.58,18.21 28.08,39.52 52.63,63.79l-463.41 0 62.8 -47.84 0 -185c-23.15,2.82 -44.03,9.88 -62.8,21.59l-5.78 -8.75c16.79,-11.85 39.65,-19.47 68.58,-23l0 -19.47c-4.66,-0.57 -8.05,-0.85 -9.88,-0.85 -28.08,0 -53.76,10.16 -76.91,30.48 12.7,-43.46 41.63,-65.19 86.79,-65.19l0 -177.24 -62.8 -49.67 441.12 0zm19.47 29.07l-2.96 3.67c-33.59,45.15 -56.02,83.11 -67.31,113.74l-7.06 -8.75c18.49,-42.62 42.34,-81.85 71.55,-117.41l5.78 8.75zm-121.78 137.87l0 182.74 -10.16 -5.37 0 -182.74 10.16 5.37zm171.31 360.68l-21.45 37.11 -451.41 0 -6.64 -11.01 452.69 0 13.97 -26.1c-39.65,-36.69 -67.59,-75.78 -83.82,-117.41l13.12 4.94c15.24,35.28 40.78,70.56 76.91,105.84l6.63 6.63z"/>
  <path id="_11" class="fil0" d="M6681.34 38.38l-6.63 7.9c-28.09,34.43 -50.38,74.09 -67.03,118.82 -2.68,-6.35 -4.8,-11.01 -6.21,-14.11 -15.1,-33.16 -31.33,-54.61 -48.69,-64.21 -17.35,-9.73 -48.4,-14.53 -93.27,-14.53 -20.74,0 -45.44,0.7 -74.37,2.11l0 190.93 25.4 0 0 -169.05c21.03,-1.84 41.07,-2.83 60.26,-2.83 35.14,0 60.96,3.67 77.61,11.15 16.65,7.48 31.47,22.02 44.45,43.46 -3.95,-2.68 -6.63,-4.79 -8.33,-6.2 -22.43,-17.64 -38.66,-28.23 -48.68,-31.61 -9.88,-3.25 -29.63,-4.94 -58.98,-4.94 -8.89,0 -24.7,0.56 -47.42,1.83l-8.75 0.43 0 157.76 76.63 0 53.76 -73.66 0 177.8 -53.76 -68.58 -112.19 0 0 231.99 25.4 0 0 -212.52 90.17 0 10.87 10.16 -90.88 0 0 202.36c56.45,0 96.67,-3.95 120.51,-12 23.85,-8.04 42.48,-23.85 56.02,-47.27l22.02 -37.82c0.84,-1.55 2.54,-4.66 5.08,-9.03 7.05,30.34 15.94,54.61 26.67,72.81 10.58,18.21 28.08,39.52 52.63,63.79l-463.41 0 62.8 -47.84 0 -185c-23.15,2.82 -44.03,9.88 -62.8,21.59l-5.78 -8.75c16.79,-11.85 39.65,-19.47 68.58,-23l0 -19.47c-4.66,-0.57 -8.05,-0.85 -9.88,-0.85 -28.08,0 -53.76,10.16 -76.91,30.48 12.7,-43.46 41.63,-65.19 86.79,-65.19l0 -177.24 -62.8 -49.67 441.12 0zm19.47 29.07l-2.96 3.67c-33.59,45.15 -56.02,83.11 -67.31,113.74l-7.06 -8.75c18.49,-42.62 42.34,-81.85 71.55,-117.41l5.78 8.75zm-121.78 137.87l0 182.74 -10.16 -5.37 0 -182.74 10.16 5.37zm171.31 360.68l-21.45 37.11 -451.41 0 -6.64 -11.01 452.69 0 13.97 -26.1c-39.65,-36.69 -67.59,-75.78 -83.82,-117.41l13.12 4.94c15.24,35.28 40.78,70.56 76.91,105.84l6.63 6.63z"/>
  <path id="_12" class="fil0" d="M6778.14 88.05c65.48,-37.67 135.75,-56.44 211.11,-56.44 58.42,0 106.68,12.7 144.64,38.1 37.96,25.26 56.87,57.57 56.87,96.8 0,31.89 -12.42,60.26 -37.26,84.95 -24.83,24.69 -58.7,42.47 -101.74,53.62 18.91,52.35 44.73,103.3 77.47,152.97 32.6,49.53 65.34,87.63 98.21,114.16l-6.2 1.97c-41.07,14.11 -81.43,33.87 -120.8,59.55l-6.21 4.09 -1.97 -13.26c-17.64,-106.68 -42.33,-196.99 -74.08,-271.22l-1.7 -4.09c-18.91,8.75 -44.45,15.8 -76.48,21.03l-3.25 0.42 0 154.66 72.82 77.75 -214.07 0 -6.63 -11.01 197.13 0 -60.25 -63.78 0 -166.65 8.75 -1.27c31.46,-3.25 57.85,-9.46 79.16,-18.63 -1.69,-3.24 -2.68,-5.36 -2.96,-6.21l-4.1 -11.99c-0.28,-0.85 -0.98,-2.4 -2.11,-4.94 -17.08,4.94 -49.39,10.3 -97.09,16.09l-4.51 0.84 0 184.44 47.55 49.24 -183.02 0 54.19 -49.24 0 -138.86 -3.39 0.42c-16.09,3.53 -30.62,7.48 -43.74,12l-3.39 1.13 -3.67 -8.19c12.28,-4.65 21.87,-7.9 28.79,-9.59l22.01 -5.36 3.39 -0.85 0 -21.45c-16.37,0 -36.69,3.53 -61.1,10.72l-4.66 1.7c0.56,-3.81 3.24,-12.84 8.32,-26.95 0.57,-0.99 2.4,-7.2 5.79,-18.49 0.28,-0.85 0.71,-2.12 1.13,-3.81 12.42,0.71 22.15,1.13 29.07,1.13 7.34,0 14.25,-0.42 20.6,-1.13l0 -203.62c-12.7,-7.77 -25.82,-14.26 -39.23,-19.48l-3.39 -1.27zm124.75 -10.72l0 223.1c8.04,0 15.66,-0.71 22.86,-1.98l0 -203.77c15.24,-4.23 33.44,-6.35 54.61,-6.35 53.9,0 90.45,17.78 109.78,53.2 -20.46,-16.79 -38.38,-28.22 -53.76,-34.43 -15.38,-6.35 -33.87,-9.45 -55.32,-9.45 -16.93,0 -31.61,1.83 -44.31,5.36l0 195.44 4.52 -0.85c54.33,-9.87 94.69,-25.54 121.07,-46.85 26.39,-21.3 39.51,-48.96 39.51,-83.11 0,-30.48 -11.85,-55.74 -35.7,-75.64 -23.7,-19.89 -53.62,-29.91 -89.88,-29.91 -29.07,0 -53.49,5.08 -73.38,15.24zm200.09 248.35c17.36,56.73 47.98,112.33 92.15,166.66 27.52,33.86 62.37,64.34 104.56,91.3 -63.07,16.79 -122.34,42.47 -177.8,76.9l-3.67 2.54 -8.32 -6.63c52.63,-34.43 108.8,-59.83 168.34,-76.06 -79.44,-52.92 -141.81,-137.58 -187.25,-253.86l-2.54 -7.05c83.96,-32.04 126.01,-80.86 126.01,-146.48 0,-27.09 -10.72,-56.58 -32.17,-88.62 27.66,25.4 41.49,57.58 41.49,96.81 0,63.5 -40.22,111.62 -120.8,144.49z"/>
 </g>
</svg>
